<?xml version="1.0" encoding="UTF-8"?>
<svg version="1.1" xmlns="http://www.w3.org/2000/svg" width="125" height="148">
<path d="M0 0 C41.25 0 82.5 0 125 0 C125 48.84 125 97.68 125 148 C83.75 148 42.5 148 0 148 C0 99.16 0 50.32 0 0 Z " fill="#E4E5E4" transform="translate(0,0)"/>
<path d="M0 0 C24.75 0 49.5 0 75 0 C69 12 69 12 65.8125 17.875 C60.4687886 28.61837789 59.52084533 40.18219916 59 52 C59.6290625 51.60167969 60.258125 51.20335937 60.90625 50.79296875 C70.88296566 44.61762216 79.63329907 41.82294635 91.375 41.8125 C92.09171875 41.80025391 92.8084375 41.78800781 93.546875 41.77539062 C98.67460427 41.76150688 103.06844728 42.59178009 108 44 C105.12647985 45.9156801 102.58067447 47.00749051 99.375 48.25 C85.10096347 54.15590414 76.9514827 62.7453849 71 77 C68.43476149 84.22658631 67.42822302 91.36581723 67 99 C89.6005147 86.37875317 89.6005147 86.37875317 104 66 C104.36606879 61.95860058 104.30784066 58.04297396 104 54 C107.5579199 55.1859733 108.27310955 55.71068486 110 59 C111.09122412 64.24215511 110.20727915 68.29232363 107.625 72.9375 C98.45589825 86.74458562 84.50421162 95.58802813 70 103 C71.76858714 104.76858714 74.22884514 104.21432524 76.625 104.25 C83.45936624 104.17703524 87.45739272 103.24695527 92.6875 98.625 C94.87610751 96.14063472 96.97777279 93.62140565 99 91 C99.35773958 94.75626559 99.13556761 96.73929307 97.375 100.125 C93.9549584 104.26505035 90.32060287 107.03347073 85 108 C82.85578272 108.09310777 80.70873209 108.12996239 78.5625 108.125 C77.45003906 108.12757812 76.33757812 108.13015625 75.19140625 108.1328125 C72.33622508 108.01399223 69.77492054 107.65353269 67 107 C68.90195234 118.3172071 71.27628764 128.8543329 75.80102539 139.43701172 C76.58046661 141.27230069 77.29662016 143.13423715 78 145 C77.67 145.66 77.34 146.32 77 147 C65.94982927 136.67049257 57.60649576 124.98203607 50 112 C45.84886522 112.87392311 41.78188597 113.75525194 37.73046875 115.0234375 C30.39308033 117.26519648 23.62908994 118.4152155 15.9375 118.5 C15.14037598 118.51820801 14.34325195 118.53641602 13.52197266 118.55517578 C7.71602049 118.49496591 4.19101256 117.19101256 0 113 C-0.09565123 111.5325104 -0.12188309 110.06043116 -0.12025452 108.58982849 C-0.12162918 107.63765442 -0.12300385 106.68548035 -0.12442017 105.70445251 C-0.12082489 104.65141434 -0.11722961 103.59837616 -0.11352539 102.51342773 C-0.11367142 101.41112823 -0.11381744 100.30882874 -0.1139679 99.17312622 C-0.11326821 95.50992908 -0.10547324 91.84678206 -0.09765625 88.18359375 C-0.09579227 85.65153532 -0.09436827 83.11947652 -0.09336853 80.5874176 C-0.08993346 74.59151751 -0.08204269 68.59563911 -0.07201904 62.59974772 C-0.05780588 53.90988975 -0.0525474 45.22002566 -0.04621124 36.530159 C-0.03649852 24.3534243 -0.01734303 12.176737 0 0 Z " fill="#3380BC" transform="translate(0,0)"/>
<path d="M0 0 C24.09 0 48.18 0 73 0 C69.89451671 2.48438663 66.79301316 4.9164756 63.625 7.3125 C50.38143532 17.68370215 40.56354288 32.10947072 38 49 C37.68101356 53.21203094 37.6203806 57.40194098 37.625 61.625 C37.62298584 62.76912354 37.62097168 63.91324707 37.61889648 65.09204102 C37.71354715 73.00853336 38.67332659 79.86352681 41.22265625 87.33984375 C42 90 42 90 41 93 C38.5625 91.9375 38.5625 91.9375 36 90 C35.1875 86.3125 35.1875 86.3125 35 83 C34.38511719 82.96261719 33.77023438 82.92523438 33.13671875 82.88671875 C32.32847656 82.82097656 31.52023438 82.75523438 30.6875 82.6875 C29.88699219 82.62949219 29.08648438 82.57148437 28.26171875 82.51171875 C25.63727666 81.91793306 24.69179328 81.04219706 23 79 C24.11179163 75.66462511 25.47411298 74.36292656 28 72 C26.329375 72.99 26.329375 72.99 24.625 74 C21.25 76 21.25 76 19 76 C11.80337222 67.98817898 4.05122873 58.32760635 3.4375 47.1875 C3.78885812 41.72192926 6.4138557 38.50040677 10.3125 34.8125 C14.96380738 31.67557177 19.29987498 29.48180682 25 30 C25.33 30.66 25.66 31.32 26 32 C27.65 32 29.3 32 31 32 C30.34 30.35 29.68 28.7 29 27 C28.28457031 27.31324219 27.56914062 27.62648438 26.83203125 27.94921875 C24.05220682 28.98062947 21.61718205 29.4266808 18.6875 29.8125 C10.30603912 31.25641251 5.9596474 35.0403526 0 41 C0 27.47 0 13.94 0 0 Z " fill="#E4E5E5" transform="translate(0,0)"/>
<path d="M0 0 C0.66 0.33 1.32 0.66 2 1 C1.319375 2.010625 0.63875 3.02125 -0.0625 4.0625 C-9.46832087 19.25651833 -13.21583935 34.20766524 -14 52 C-13.3709375 51.60167969 -12.741875 51.20335937 -12.09375 50.79296875 C-2.11703434 44.61762216 6.63329907 41.82294635 18.375 41.8125 C19.09171875 41.80025391 19.8084375 41.78800781 20.546875 41.77539062 C25.67460427 41.76150688 30.06844728 42.59178009 35 44 C32.12647985 45.9156801 29.58067447 47.00749051 26.375 48.25 C12.09643334 54.15777848 3.95887554 62.74579013 -2 77 C-4.45325201 83.82519528 -5.36790269 90.32988213 -5.59375 97.56640625 C-5.7278125 98.36949219 -5.861875 99.17257813 -6 100 C-9.25836539 102.1722436 -10.67611811 102.32824689 -14.47265625 101.734375 C-20.87690722 99.87347982 -28.22242045 96.90415957 -31.78125 91.08984375 C-35.61625462 81.3671237 -36.30223638 72.31844245 -36.375 61.9375 C-36.38877686 60.84985352 -36.40255371 59.76220703 -36.41674805 58.64160156 C-36.31468602 40.58614831 -29.42487353 25.38793799 -16.81640625 12.66796875 C-5.90548386 2.3321019 -5.90548386 2.3321019 0 0 Z " fill="#73C33C" transform="translate(73,0)"/>
<path d="M0 0 C3.48111696 1.31049337 4.75315486 4.84477815 6.50976562 7.9440918 C11.11055559 15.69913515 16.43759015 22.38994609 22.49926758 29.04418945 C24.72480448 31.56720802 26.85598157 34.17205094 29.00976562 36.7565918 C3.26976562 36.7565918 -22.47023438 36.7565918 -48.99023438 36.7565918 C-48.99023438 25.2065918 -48.99023438 13.6565918 -48.99023438 1.7565918 C-45.52523437 3.7365918 -45.52523437 3.7365918 -41.99023438 5.7565918 C-39.82252899 6.35830129 -39.82252899 6.35830129 -37.81835938 6.32299805 C-37.08029053 6.33596924 -36.34222168 6.34894043 -35.58178711 6.36230469 C-34.80907471 6.34804443 -34.0363623 6.33378418 -33.24023438 6.3190918 C-32.4269165 6.31321045 -31.61359863 6.3073291 -30.77563477 6.30126953 C-21.05991049 6.01165099 -8.8232285 -1.0790921 0 0 Z " fill="#E5E5E5" transform="translate(48.990234375,111.243408203125)"/>
<path d="M0 0 C4.20403827 2.77995228 4.82497096 5.11911015 6 10 C6.33 10.33 6.66 10.66 7 11 C8.7015625 10.8453125 8.7015625 10.8453125 10.4375 10.6875 C16.24223977 10.63520505 20.64388214 13.33655105 25 17 C27.18968894 20.03187699 29 23.15423802 29 27 C17.43864648 31.98725054 2.92455588 34.54126318 -9.1484375 29.9765625 C-11.97865989 28.48382917 -12.95546835 26.99432406 -14 24 C-15.13080679 18.59725645 -12.67432946 14.9792044 -9.8671875 10.546875 C-6.97898447 6.60731773 -3.60782468 3.27817572 0 0 Z " fill="#E2E4E4" transform="translate(19,81)"/>
<path d="M0 0 C3.5579199 1.1859733 4.27310955 1.71068486 6 5 C7.09122412 10.24215511 6.20727915 14.29232363 3.625 18.9375 C-5.54410175 32.74458562 -19.49578838 41.58802813 -34 49 C-32.23141286 50.76858714 -29.77115486 50.21432524 -27.375 50.25 C-20.54063376 50.17703524 -16.54260728 49.24695527 -11.3125 44.625 C-9.12389249 42.14063472 -7.02222721 39.62140565 -5 37 C-4.64226042 40.75626559 -4.86443239 42.73929307 -6.625 46.125 C-10.0450416 50.26505035 -13.67939713 53.03347073 -19 54 C-21.14421728 54.09310777 -23.29126791 54.12996239 -25.4375 54.125 C-26.54996094 54.12757812 -27.66242188 54.13015625 -28.80859375 54.1328125 C-31.69147393 54.01283952 -34.22570658 53.78211464 -37 53 C-38.8125 50.9375 -38.8125 50.9375 -40 49 C-37.00037384 45.5866323 -33.94206684 43.24966112 -30.0625 40.875 C-20.655096 35.03680077 -10.41547396 28.1940067 -4 19 C-3.21625 17.948125 -2.4325 16.89625 -1.625 15.8125 C1.06405907 10.96774895 0.31677594 5.35879304 0 0 Z " fill="#3581BC" transform="translate(104,54)"/>
<path d="M0 0 C-0.42095732 2.52574393 -0.79707071 4.63290319 -2.04296875 6.88671875 C-3.70861213 10.56473129 -3.11851533 14.19704787 -2 18 C2.75032246 22.22250885 8.81507127 22.27633606 14.90625 22.23046875 C21.35629059 21.7499733 27.67609232 20.3109712 34 19 C35.66649844 18.66582666 37.33308578 18.33209316 39 18 C38.505 17.071875 38.01 16.14375 37.5 15.1875 C36 12 36 12 36 9 C36.60328125 9.20496094 37.2065625 9.40992187 37.828125 9.62109375 C38.62734375 9.89050781 39.4265625 10.15992187 40.25 10.4375 C41.03890625 10.70433594 41.8278125 10.97117187 42.640625 11.24609375 C44.74821988 11.91954708 46.84753973 12.49150595 49 13 C49 13.66 49 14.32 49 15 C48.01 15.66 47.02 16.32 46 17 C46.66 17.66 47.32 18.32 48 19 C21.51000438 28.18676616 21.51000438 28.18676616 7.0625 28.4375 C6.2569165 28.45989746 5.45133301 28.48229492 4.62133789 28.50537109 C-1.25338529 28.48204165 -4.75655782 27.24344218 -9 23 C-9.18153617 20.58646168 -9.27814571 18.22875181 -9.3125 15.8125 C-9.34988281 14.49894531 -9.38726562 13.18539062 -9.42578125 11.83203125 C-8.9374704 7.4372336 -7.78482035 5.38694367 -5 2 C-2 0 -2 0 0 0 Z " fill="#307EBA" transform="translate(9,90)"/>
<path d="M0 0 C0.12677124 0.81283447 0.12677124 0.81283447 0.25610352 1.64208984 C2.0451972 12.77032288 4.33850152 23.10352527 8.80102539 33.48779297 C9.57914247 35.30654468 10.29585412 37.15135116 11 39 C10.67 39.66 10.34 40.32 10 41 C-1.36283018 30.37822396 -9.68887006 18.62157449 -17 5 C-15.29870914 4.15238178 -13.58856916 3.3225132 -11.875 2.5 C-10.92367187 2.0359375 -9.97234375 1.571875 -8.9921875 1.09375 C-5.78803369 -0.07748116 -3.38282687 -0.20076124 0 0 Z " fill="#76C43F" transform="translate(67,106)"/>
<path d="M0 0 C2 3 2 3 3.5625 6.5 C5.97313855 11.44043414 9.43578211 15.41190949 12.9765625 19.58203125 C15 22 15 22 17 25 C16.25556641 25.58394531 16.25556641 25.58394531 15.49609375 26.1796875 C10.55337439 30.25016227 6.96424546 34.5194133 3.4453125 39.86328125 C2 42 2 42 0 44 C0 29.48 0 14.96 0 0 Z " fill="#E2E3E4" transform="translate(0,54)"/>
<path d="M0 0 C3.375 2.0625 3.375 2.0625 6 5 C6.58239453 9.14956101 6.54866881 12.55929711 4 16 C0.77002661 18.30712385 -2.11404618 18.54403353 -6 18 C-9.1769042 16.1173901 -11.47719886 14.72872909 -12.5859375 11.0625 C-12.7656303 8.80350479 -12.656625 7.17123999 -12 5 C-8.37923712 0.86198528 -5.52333149 -1.15069406 0 0 Z " fill="#74C33D" transform="translate(77,21)"/>
<path d="M0 0 C2.39711711 0.45228625 4.79252818 0.9116008 7.1875 1.375 C7.86103516 1.50132813 8.53457031 1.62765625 9.22851562 1.7578125 C13.1057486 2.51434576 16.28773413 3.51509365 20 5 C20 10.94 20 16.88 20 23 C18.68 22.34 17.36 21.68 16 21 C15.34 21.33 14.68 21.66 14 22 C13.7525 21.113125 13.505 20.22625 13.25 19.3125 C11.90465166 15.7473269 10.72966207 13.65588742 8 11 C4.37526891 9.64164329 4.37526891 9.64164329 1 9 C1.33 8.01 1.66 7.02 2 6 C2.66 6 3.32 6 4 6 C3.34 5.38125 2.68 4.7625 2 4.125 C0 2 0 2 0 0 Z " fill="#307DBA" transform="translate(74,8)"/>
<path d="M0 0 C4.01232901 1.19285457 7.62980257 2.78625912 11.375 4.625 C16.26745115 6.90725149 19.65478438 7.50426562 25 7 C24.34 7.66 23.68 8.32 23 9 C23.99 9.99 24.98 10.98 26 12 C21.71 12.66 17.42 13.32 13 14 C13 13.01 13 12.02 13 11 C13.99 11 14.98 11 16 11 C16 10.34 16 9.68 16 9 C15.01 8.9175 14.02 8.835 13 8.75 C8.67464717 8.1232652 4.48928112 6.68078915 1 4 C0.2734375 1.86328125 0.2734375 1.86328125 0 0 Z " fill="#2677BC" transform="translate(42,94)"/>
<path d="M0 0 C1.32 0.66 2.64 1.32 4 2 C4 3.32 4 4.64 4 6 C2.35 6.33 0.7 6.66 -1 7 C-1.33 6.01 -1.66 5.02 -2 4 C-10.14054782 6.12362117 -16.15950104 8.71023189 -22 15 C-21.66666667 13.66666667 -21.33333333 12.33333333 -21 11 C-20.91878906 10.33871094 -20.83757813 9.67742188 -20.75390625 8.99609375 C-20 7 -20 7 -17.9609375 5.76953125 C-12.93058608 3.9078453 -8.35135356 2.65526778 -3 2 C-2.01 1.34 -1.02 0.68 0 0 Z " fill="#3B84BD" transform="translate(27,26)"/>
<path d="M0 0 C0.90492187 0.30744141 0.90492187 0.30744141 1.828125 0.62109375 C3.02695312 1.02521484 3.02695312 1.02521484 4.25 1.4375 C5.03890625 1.70433594 5.8278125 1.97117187 6.640625 2.24609375 C8.74821988 2.91954708 10.84753973 3.49150595 13 4 C13 4.66 13 5.32 13 6 C8.05 7.485 8.05 7.485 3 9 C0 3.375 0 3.375 0 0 Z " fill="#74C33E" transform="translate(45,99)"/>
<path d="M0 0 C3.96 0 7.92 0 12 0 C12 0.33 12 0.66 12 1 C13.65 1.33 15.3 1.66 17 2 C17 2.33 17 2.66 17 3 C14.93757383 3.02717692 12.87504297 3.0464758 10.8125 3.0625 C9.66394531 3.07410156 8.51539062 3.08570312 7.33203125 3.09765625 C4.40699414 3.01192832 1.83683709 2.67849023 -1 2 C-0.67 1.34 -0.34 0.68 0 0 Z " fill="#4B8DC1" transform="translate(68,105)"/>
</svg>
